<?xml version="1.0" encoding="utf-8"?>
<!-- Generator: Adobe Illustrator 22.1.0, SVG Export Plug-In . SVG Version: 6.00 Build 0)  -->
<svg version="1.1" id="Layer_1" xmlns="http://www.w3.org/2000/svg" xmlns:xlink="http://www.w3.org/1999/xlink" x="0px" y="0px"
	 viewBox="0 0 40 40" style="enable-background:new 0 0 40 40;" xml:space="preserve">
<style type="text/css">
	.st0{fill:#009BD9;}
</style>
<g>
	<path class="st0" d="M20.3,22.9c-0.2-0.2-0.4-0.2-0.6,0l-7.3,7.3c-0.9,0.9-1.9,0.9-2.7,0.2s-0.8-1.8,0.2-2.7l7.3-7.3
		c0.2-0.2,0.2-0.4,0-0.6l-7.4-7.4c-0.9-0.9-0.9-2-0.1-2.8c0.8-0.8,1.8-0.8,2.7,0.1l7.4,7.4c0.2,0.2,0.4,0.2,0.6,0l7.3-7.3
		c0.9-0.9,1.9-0.9,2.7-0.2s0.8,1.8-0.2,2.7l-7.3,7.3c-0.2,0.2-0.2,0.4,0,0.6l7.4,7.4c0.9,0.9,0.9,2,0.1,2.7s-1.8,0.8-2.7-0.1
		L20.3,22.9z"/>
</g>
</svg>
