<?xml version="1.0" encoding="utf-8"?>
<!-- Generator: Adobe Illustrator 21.1.0, SVG Export Plug-In . SVG Version: 6.00 Build 0)  -->
<svg version="1.1" id="Layer_1" xmlns="http://www.w3.org/2000/svg" xmlns:xlink="http://www.w3.org/1999/xlink" x="0px" y="0px"
	 viewBox="0 0 40 40" style="enable-background:new 0 0 40 40;" xml:space="preserve">
<style type="text/css">
	.st0{fill:#004F6F;}
</style>
<path class="st0" d="M35,32.2L26.8,24c1.4-2,2.2-4.4,2.2-6.9c0-6.6-5.4-12-12-12S5,10.4,5,17c0,6.6,5.4,12,12,12c0,0,0,0,0,0
	c2.6,0,5-0.8,6.9-2.2l8.2,8.2L35,32.2z M17,25c-4.4,0-8-3.6-8-8s3.6-8,8-8c2.1,0,4.1,0.8,5.7,2.3S25,14.9,25,17
	c0,2.1-0.8,4.1-2.3,5.7S19.2,25,17,25z"/>
</svg>
